<?xml version="1.0" encoding="utf-8"?>
<!-- Generator: Adobe Illustrator 21.0.0, SVG Export Plug-In . SVG Version: 6.00 Build 0)  -->
<svg version="1.1" id="Glyph" xmlns="http://www.w3.org/2000/svg" xmlns:xlink="http://www.w3.org/1999/xlink" x="0px" y="0px"
	 viewBox="0 0 800 800" style="enable-background:new 0 0 800 800;" xml:space="preserve">
<style type="text/css">
	.st0{fill:#FFFFFF;}
</style>
<path id="XMLID_314_" class="st0" d="M650,400c0,27.6-22.4,50-50,50H200c-27.6,0-50-22.4-50-50s22.4-50,50-50h400
	C627.6,350,650,372.4,650,400z"/>
<path id="XMLID_315_" class="st0" d="M650,200c0,27.6-22.4,50-50,50H200c-27.6,0-50-22.4-50-50s22.4-50,50-50h400
	C627.6,150,650,172.4,650,200z"/>
<path id="XMLID_316_" class="st0" d="M650,600c0,27.6-22.4,50-50,50H200c-27.6,0-50-22.4-50-50s22.4-50,50-50h400
	C627.6,550,650,572.4,650,600z"/>
</svg>
