<?xml version="1.0" encoding="utf-8"?>
<!-- Generator: Adobe Illustrator 21.0.0, SVG Export Plug-In . SVG Version: 6.00 Build 0)  -->
<svg version="1.1" id="Glyph" xmlns="http://www.w3.org/2000/svg" xmlns:xlink="http://www.w3.org/1999/xlink" x="0px" y="0px"
	 viewBox="0 0 800 800" style="enable-background:new 0 0 800 800;" xml:space="preserve">
<style type="text/css">
	.st0{fill:#FFFFFF;}
</style>
<path id="XMLID_314_" class="st0" d="M576.8,223.2c19.5,19.5,19.5,51.2,0,70.7L293.9,576.8c-19.5,19.5-51.2,19.5-70.7,0
	c-19.5-19.5-19.5-51.2,0-70.7l282.8-282.8C525.6,203.7,557.3,203.7,576.8,223.2z"/>
<path id="XMLID_315_" class="st0" d="M576.8,576.8c-19.5,19.5-51.2,19.5-70.7,0L223.2,293.9c-19.5-19.5-19.5-51.2,0-70.7
	s51.2-19.5,70.7,0l282.8,282.8C596.3,525.6,596.3,557.3,576.8,576.8z"/>
</svg>
