<svg id="visual" viewBox="0 0 900 200" width="900" height="200" xmlns="http://www.w3.org/2000/svg" xmlns:xlink="http://www.w3.org/1999/xlink" version="1.1"><path d="M0 123L16.7 130.2C33.3 137.3 66.7 151.7 100 150.5C133.3 149.3 166.7 132.7 200 119.2C233.3 105.7 266.7 95.3 300 98.8C333.3 102.3 366.7 119.7 400 126.7C433.3 133.7 466.7 130.3 500 126.8C533.3 123.3 566.7 119.7 600 122.3C633.3 125 666.7 134 700 135.7C733.3 137.3 766.7 131.7 800 121.5C833.3 111.3 866.7 96.7 883.3 89.3L900 82L900 0L883.3 0C866.7 0 833.3 0 800 0C766.7 0 733.3 0 700 0C666.7 0 633.3 0 600 0C566.7 0 533.3 0 500 0C466.7 0 433.3 0 400 0C366.7 0 333.3 0 300 0C266.7 0 233.3 0 200 0C166.7 0 133.3 0 100 0C66.7 0 33.3 0 16.7 0L0 0Z" fill="#222222"></path><path d="M0 140L16.7 132.7C33.3 125.3 66.7 110.7 100 103C133.3 95.3 166.7 94.7 200 94.8C233.3 95 266.7 96 300 93.5C333.3 91 366.7 85 400 82.5C433.3 80 466.7 81 500 85.2C533.3 89.3 566.7 96.7 600 96.5C633.3 96.3 666.7 88.7 700 89.2C733.3 89.7 766.7 98.3 800 98.7C833.3 99 866.7 91 883.3 87L900 83L900 0L883.3 0C866.7 0 833.3 0 800 0C766.7 0 733.3 0 700 0C666.7 0 633.3 0 600 0C566.7 0 533.3 0 500 0C466.7 0 433.3 0 400 0C366.7 0 333.3 0 300 0C266.7 0 233.3 0 200 0C166.7 0 133.3 0 100 0C66.7 0 33.3 0 16.7 0L0 0Z" fill="#472e2d"></path><path d="M0 99L16.7 100C33.3 101 66.7 103 100 99C133.3 95 166.7 85 200 76.3C233.3 67.7 266.7 60.3 300 62.5C333.3 64.7 366.7 76.3 400 85.7C433.3 95 466.7 102 500 97.8C533.3 93.7 566.7 78.3 600 73.8C633.3 69.3 666.7 75.7 700 81C733.3 86.3 766.7 90.7 800 85C833.3 79.3 866.7 63.7 883.3 55.8L900 48L900 0L883.3 0C866.7 0 833.3 0 800 0C766.7 0 733.3 0 700 0C666.7 0 633.3 0 600 0C566.7 0 533.3 0 500 0C466.7 0 433.3 0 400 0C366.7 0 333.3 0 300 0C266.7 0 233.3 0 200 0C166.7 0 133.3 0 100 0C66.7 0 33.3 0 16.7 0L0 0Z" fill="#6c3839"></path><path d="M0 65L16.7 63.3C33.3 61.7 66.7 58.3 100 52.7C133.3 47 166.7 39 200 35C233.3 31 266.7 31 300 31.5C333.3 32 366.7 33 400 38.5C433.3 44 466.7 54 500 58.2C533.3 62.3 566.7 60.7 600 57.3C633.3 54 666.7 49 700 45.2C733.3 41.3 766.7 38.7 800 40.8C833.3 43 866.7 50 883.3 53.5L900 57L900 0L883.3 0C866.7 0 833.3 0 800 0C766.7 0 733.3 0 700 0C666.7 0 633.3 0 600 0C566.7 0 533.3 0 500 0C466.7 0 433.3 0 400 0C366.7 0 333.3 0 300 0C266.7 0 233.3 0 200 0C166.7 0 133.3 0 100 0C66.7 0 33.3 0 16.7 0L0 0Z" fill="#934245"></path><path d="M0 26L16.7 25.5C33.3 25 66.7 24 100 22.8C133.3 21.7 166.7 20.3 200 22.3C233.3 24.3 266.7 29.7 300 28.8C333.3 28 366.7 21 400 20.7C433.3 20.3 466.7 26.7 500 26.8C533.3 27 566.7 21 600 24C633.3 27 666.7 39 700 44.7C733.3 50.3 766.7 49.7 800 48.5C833.3 47.3 866.7 45.7 883.3 44.8L900 44L900 0L883.3 0C866.7 0 833.3 0 800 0C766.7 0 733.3 0 700 0C666.7 0 633.3 0 600 0C566.7 0 533.3 0 500 0C466.7 0 433.3 0 400 0C366.7 0 333.3 0 300 0C266.7 0 233.3 0 200 0C166.7 0 133.3 0 100 0C66.7 0 33.3 0 16.7 0L0 0Z" fill="#bc4b51"></path></svg>